<svg>
    <defs>

        <clippath id="illusion-number-0-all" clipPathUnits="objectBoundingBox">
            <!--■■■
                ■□■
                ■□■
                ■□■
                ■■■-->
            <polygon points="0 0, 0 0.2, 1 0.2, 1 0" />
            <polygon points="0 0.8, 0 1, 1 1, 1 0.8" />
            <polygon points="0 0.2, 0 0.8, 0.33 0.8, 0.33 0.2" />
            <polygon points="0.67 0.2, 0.67 0.8, 1 0.8, 1 0.2" />
        </clippath>
        <clippath id="illusion-number-0-1-in" clipPathUnits="objectBoundingBox">
            <!--■■■
                ■□■
                ■□■
                ■□■
                ■■■-->
            <polygon points="0 0, 0 0.2, 1 0.2, 1 0" />
            <polygon points="0 0.8, 0 1, 1 1, 1 0.8" />
            <polygon points="0 0.2, 0 0.8, 0.33 0.8, 0.33 0.2" />
            <polygon points="0.67 0.2, 0.67 0.8, 1 0.8, 1 0.2" />
        </clippath>
        <clippath id="illusion-number-0-2-in" clipPathUnits="objectBoundingBox">
        </clippath>
        <clippath id="illusion-number-0-3-in" clipPathUnits="objectBoundingBox">
            <!--□□□
                ■□□
                □□□
                □□□
                □□□-->
            <polygon points="0 0.2, 0 0.4, 0.33 0.4, 0.33 0.2" />
        </clippath>
        <clippath id="illusion-number-0-1-out" clipPathUnits="objectBoundingBox">
            <!--■■■
                □□□
                □□□
                □□□
                □□□-->
            <polygon points="0 0, 0 0.2, 1 0.2, 1 0" />
            <!--□□□
                □□□
                □□□
                □□□
                ■■■-->
            <polygon points="0 0.8, 0 1, 1 1, 1 0.8" />
        </clippath>

        <clippath id="illusion-number-0-2-out" clipPathUnits="objectBoundingBox">
            <!--□□□
                ■□□
                ■□□
                ■□□
                □□□-->
            <polygon points="0 0.2, 0 0.8, 0.33 0.8, 0.33 0.2" />
            <!--□□□
                □□■
                □□■
                □□■
                □□□-->
            <polygon points="0.67 0.2, 0.67 0.8, 1 0.8, 1 0.2" />
        </clippath>

        <clippath id="illusion-number-0-3-out" clipPathUnits="objectBoundingBox">
        </clippath>

        <clippath id="illusion-number-1-all" clipPathUnits="objectBoundingBox">
            <!--■■□
                □■□
                □■□
                □■□
                ■■■-->
            <polygon points="0 0, 0 0.2, 0.33 0.2, 0.33 0.8, 0 0.8, 0 1, 1 1, 1 0.8, 0.67 0.8, 0.67 0" />
        </clippath>
        <clippath id="illusion-number-1-1-in" clipPathUnits="objectBoundingBox">
            <!--■■□
                □■□
                □■□
                □■□
                ■■■-->
            <polygon points="0 0, 0 0.2, 0.33 0.2, 0.33 0.8, 0 0.8, 0 1, 1 1, 1 0.8, 0.67 0.8, 0.67 0" />
        </clippath>
        <clippath id="illusion-number-1-2-in" clipPathUnits="objectBoundingBox">
        </clippath>
        <clippath id="illusion-number-1-3-in" clipPathUnits="objectBoundingBox">
            <!--□□□
                □■□
                □■□
                □■□
                □□□-->
            <polygon points="0.33 0.2, 0.33 0.8, 0.67 0.8, 0.67 0.2" />
        </clippath>
        <clippath id="illusion-number-1-1-out" clipPathUnits="objectBoundingBox">
            <!--■■□
                □□□
                □□□
                □□□
                □□□-->
            <polygon points="0 0, 0 0.2, 0.67 0.2, 0.67 0" />
            <!--□□□
                □□□
                □■□
                □■□
                ■■■-->
            <polygon points="0.33 0.4, 0.33 0.8, 0 0.8, 0 1, 1 1, 1 0.8, 0.67 0.8, 0.67 0.4" />
        </clippath>
        <clippath id="illusion-number-1-2-out" clipPathUnits="objectBoundingBox">
        </clippath>
        <clippath id="illusion-number-1-3-out" clipPathUnits="objectBoundingBox">
            <!--□□□
                □■□
                □□□
                □□□
                □□□-->
            <polygon points="0.33 0.2, 0.33 0.4, 0.67 0.4, 0.67 0.2" />
        </clippath>

        <clippath id="illusion-number-2-all" clipPathUnits="objectBoundingBox">
            <!--■■■
                □□■
                ■■■
                ■□□
                ■■■-->
            <polygon points="0 0, 0 0.2, 0.67 0.2, 0.67 0.4, 0 0.4, 0 1, 1 1, 1 0.8, 0.33 0.8, 0.33 0.6, 1 0.6, 1 0" />
        </clippath>
        <clippath id="illusion-number-2-1-in" clipPathUnits="objectBoundingBox">
            <!--□□□
                □□□
                □□□
                □□□
                ■■■-->
            <polygon points="0 0.8, 0 1, 1 1, 1 0.8" />
        </clippath>
        <clippath id="illusion-number-2-2-in" clipPathUnits="objectBoundingBox">
            <!--■■■
                □□■
                ■■■
                ■□□
                □□□-->
            <polygon points="0 0, 0 0.2, 0.67 0.2, 0.67 0.4, 0 0.4, 0 0.8, 0.33 0.8, 0.33 0.6, 1 0.6, 1 0" />
        </clippath>
        <clippath id="illusion-number-2-3-in" clipPathUnits="objectBoundingBox">
        </clippath>
        <clippath id="illusion-number-2-1-out" clipPathUnits="objectBoundingBox">
            <!--■■■
                □□□
                □□□
                □□□
                □□□-->
            <polygon points="0 0, 0 0.2, 1 0.2, 1 0" />
            <!--□□□
                □□□
                □□□
                □□□
                ■■■-->
            <polygon points="0 0.8, 0 1, 1 1, 1 0.8" />
        </clippath>
        <clippath id="illusion-number-2-2-out" clipPathUnits="objectBoundingBox">
            <!--□□□
                □□□
                ■■■
                □□□
                □□□-->
            <polygon points="0 0.4, 0 0.6, 1 0.6, 1 0.4" />
        </clippath>
        <clippath id="illusion-number-2-3-out" clipPathUnits="objectBoundingBox">
            <!--□□□
                □□■
                □□□
                □□□
                □□□-->
            <polygon points="0.67 0.2, 0.67 0.4, 1 0.4, 1 0.2" />
            <!--□□□
                □□□
                □□□
                ■□□
                □□□-->
            <polygon points="0 0.6, 0 0.8, 0.33 0.8, 0.33 0.6" />
        </clippath>

        <clippath id="illusion-number-3-all" clipPathUnits="objectBoundingBox">
            <!--■■■
                □□■
                □■■
                □□■
                ■■■-->
            <polygon points="0 0, 0 0.2, 0.67 0.2, 0.67 0.4, 0.33 0.4, 0.33 0.6, 0.67 0.6, 0.67 0.8, 0 0.8, 0 1, 1 1, 1 0" />
        </clippath>
        <clippath id="illusion-number-3-1-in" clipPathUnits="objectBoundingBox">
            <!--■■■
                □□■
                □■■
                □□□
                □□□-->
            <polygon points="0 0, 0 0.2, 0.67 0.2, 0.67 0.4, 0.33 0.4, 0.33 0.6, 1 0.6, 1 0" />
            <!--□□□
                □□□
                □□□
                ■■■-->
            <polygon points="0 0.8, 0 1, 1 1, 1 0.8" />
        </clippath>
        <clippath id="illusion-number-3-2-in" clipPathUnits="objectBoundingBox">
        </clippath>
        <clippath id="illusion-number-3-3-in" clipPathUnits="objectBoundingBox">
            <!--□□□
                □□□
                □□□
                □□■
                □□□-->
            <polygon points="0.67 0.6, 0.67 0.8, 1 0.8, 1 0.6" />
        </clippath>
        <clippath id="illusion-number-3-1-out" clipPathUnits="objectBoundingBox">
            <!--■■■
                □□■
                □■■
                □□□
                □□□-->
            <polygon points="0 0, 0 0.2, 0.67 0.2, 0.67 0.4, 0.33 0.4, 0.33 0.6, 1 0.6, 1 0" />
        </clippath>
        <clippath id="illusion-number-3-2-out" clipPathUnits="objectBoundingBox">
        </clippath>
        <clippath id="illusion-number-3-3-out" clipPathUnits="objectBoundingBox">
            <!--□□■
                □□■
                □□□
                □□□
                □□□-->
            <polygon points="0.67 0, 0.67 0.4, 1 0.4, 1 0" />
            <!--□□□
                □□□
                □□□
                □□■
                ■■■-->
            <polygon points="0.67 0.6, 0.67 0.8, 0 0.8, 0 1, 1 1, 1 0.6" />
        </clippath>


        <clippath id="illusion-number-4-all" clipPathUnits="objectBoundingBox">
            <!--■□■
                ■□■
                ■■■
                □□■
                □□■-->
            <polygon points="0 0, 0 0.6, 0.67 0.6, 0.67 1, 1 1, 1 0, 0.67 0, 0.67 0.4, 0.33 0.4, 0.33 0" />
        </clippath>
        <clippath id="illusion-number-4-1-in" clipPathUnits="objectBoundingBox">
            <!--■□■
                ■□■
                ■■■
                □□■
                □□■-->
            <polygon points="0 0, 0 0.6, 0.67 0.6, 0.67 1, 1 1, 1 0, 0.67 0, 0.67 0.4, 0.33 0.4, 0.33 0" />
        </clippath>
        <clippath id="illusion-number-4-2-in" clipPathUnits="objectBoundingBox">
        </clippath>
        <clippath id="illusion-number-4-3-in" clipPathUnits="objectBoundingBox">
        </clippath>
        <clippath id="illusion-number-4-1-out" clipPathUnits="objectBoundingBox">
            <!--■□■
                ■□■
                ■■■
                □□□
                □□□-->
            <polygon points="0 0, 0 0.6, 1 0.6, 1 0, 0.67 0, 0.67 0.4, 0.33 0.4, 0.33 0" />
            <!--□□□
                □□□
                □□□
                □□□
                □□■-->
            <polygon points="0.67 0.8, 0.67 1, 1 1, 1 0.8" />
        </clippath>
        <clippath id="illusion-number-4-2-out" clipPathUnits="objectBoundingBox">
        </clippath>
        <clippath id="illusion-number-4-3-out" clipPathUnits="objectBoundingBox">
            <!--□□□
                □□□
                □□□
                □□■
                □□□-->
            <polygon points="0.67 0.6, 0.67 0.8, 1 0.8, 1 0.6" />
        </clippath>

        <clippath id="illusion-number-5-all" clipPathUnits="objectBoundingBox">
            <!--■■■
                ■□□
                ■■■
                □□■
                ■■■-->
            <polygon points="0 0, 0 0.6, 0.67 0.6, 0.67 0.8, 0 0.8, 0 1, 1 1, 1 0.4, 0.33 0.4, 0.33 0.2, 1 0.2, 1 0" />
        </clippath>
        <clippath id="illusion-number-5-1-in" clipPathUnits="objectBoundingBox">
            <!--■■■
                ■□□
                ■■■
                □□■
                ■■■-->
            <polygon points="0 0, 0 0.6, 0.67 0.6, 0.67 0.8, 0 0.8, 0 1, 1 1, 1 0.4, 0.33 0.4, 0.33 0.2, 1 0.2, 1 0" />
        </clippath>
        <clippath id="illusion-number-5-2-in" clipPathUnits="objectBoundingBox">
        </clippath>
        <clippath id="illusion-number-5-3-in" clipPathUnits="objectBoundingBox">
            <!--■□□
                ■□□
                □□□
                □□□
                □□□-->
            <polygon points="0 0, 0 0.4, 0.33 0.4, 0.33 0" />
        </clippath>
        <clippath id="illusion-number-5-1-out" clipPathUnits="objectBoundingBox">
            <!--■■■
                ■□□
                ■■■
                □□■
                ■■■-->
            <polygon points="0 0, 0 0.6, 0.67 0.6, 0.67 0.8, 0 0.8, 0 1, 1 1, 1 0.4, 0.33 0.4, 0.33 0.2, 1 0.2, 1 0" />
        </clippath>
        <clippath id="illusion-number-5-2-out" clipPathUnits="objectBoundingBox">
        </clippath>
        <clippath id="illusion-number-5-3-out" clipPathUnits="objectBoundingBox">
        </clippath>

        <clippath id="illusion-number-6-all" clipPathUnits="objectBoundingBox">
            <!--■■■
                ■□□
                ■■■
                ■□■
                ■■■-->
            <polygon points="0 0, 0 1, 1 1, 1 0.4, 0.33 0.4, 0.33 0.6, 0.67 0.6, 0.67 0.8, 0.33 0.8, 0.33 0.2, 1 0.2, 1 0" />
        </clippath>
        <clippath id="illusion-number-6-1-in" clipPathUnits="objectBoundingBox">
            <!--■■■
                □□□
                □□□
                □□□
                □□□-->
            <polygon points="0 0, 0 0.2, 1 0.2, 1 0" />
            <!--□□□
                □□□
                ■■■
                ■□■
                ■■■-->
            <polygon points="0 0.4, 0 1, 1 1, 1 0.4, 0.33 0.4, 0.33 0.6, 0.67 0.6, 0.67 0.8, 0.33 0.8, 0.33 0.4" />
        </clippath>
        <clippath id="illusion-number-6-2-in" clipPathUnits="objectBoundingBox">
        </clippath>
        <clippath id="illusion-number-6-3-in" clipPathUnits="objectBoundingBox">
            <!--□□□
                ■□□
                □□□
                □□□
                □□□-->
            <polygon points="0 0.2, 0 0.4, 0.33 0.4, 0.33 0.2" />
        </clippath>
        <clippath id="illusion-number-6-1-out" clipPathUnits="objectBoundingBox">
            <!--■■■
                □□□
                □□□
                □□□
                □□□-->
            <polygon points="0 0, 0 0.2, 1 0.2, 1 0" />
        </clippath>
        <clippath id="illusion-number-6-2-out" clipPathUnits="objectBoundingBox">
            <polygon points="" />
        </clippath>
        <clippath id="illusion-number-6-3-out" clipPathUnits="objectBoundingBox">
            <!--■■■
                ■□□
                ■■■
                ■□■
                ■■■-->
            <polygon points="0 0.2, 0 1, 1 1, 1 0.4, 0.33 0.4, 0.33 0.6, 0.67 0.6, 0.67 0.8, 0.33 0.8, 0.33 0.2" />
        </clippath>

        <clippath id="illusion-number-7-all" clipPathUnits="objectBoundingBox">
            <!--■■■
                □□■
                □□■
                □□■
                □□■-->
            <polygon points="0 0, 0 0.2, 0.67 0.2, 0.67 1, 1 1, 1 0" />
        </clippath>
        <clippath id="illusion-number-7-1-in" clipPathUnits="objectBoundingBox">
            <!--■■■
                □□□
                □□□
                □□□
                □□□-->
            <polygon points="0 0, 0 0.2, 1 0.2, 1 0" />
            <!--□□□
                □□□
                □□■
                □□■
                □□■-->
            <polygon points="0.67 0.4, 0.67 1, 1 1, 1 0.4" />
        </clippath>
        <clippath id="illusion-number-7-2-in" clipPathUnits="objectBoundingBox">
        </clippath>
        <clippath id="illusion-number-7-3-in" clipPathUnits="objectBoundingBox">
            <!--□□□
                □□■
                □□□
                □□□
                □□□-->
            <polygon points="0.67 0.2, 0.67 0.4, 1 0.4, 1 0.2" />
        </clippath>
        <clippath id="illusion-number-7-1-out" clipPathUnits="objectBoundingBox">
            <!--■■■
                □□■
                □□■
                □□■
                □□■-->
            <polygon points="0 0, 0 0.2, 0.67 0.2, 0.67 1, 1 1, 1 0" />
        </clippath>
        <clippath id="illusion-number-7-2-out" clipPathUnits="objectBoundingBox">
        </clippath>
        <clippath id="illusion-number-7-3-out" clipPathUnits="objectBoundingBox">
            <!--□□□
                □□■
                □□□
                □□□
                □□□-->
            <polygon points="0.67 0.2, 0.67 0.4, 1 0.4, 1 0.2" />
            <!--□□□
                □□□
                □□□
                □□■
                □□□-->
            <polygon points="0.67 0.6, 0.67 0.8, 1 0.8, 1 0.6" />
        </clippath>

        <clippath id="illusion-number-8-all" clipPathUnits="objectBoundingBox">
            <!--■■■
                ■□■
                ■■■
                ■□■
                ■■■-->
            <polygon points="0 0, 0 1, 1 1, 1 0, 0.33 0, 0.33 0.2, 0.67 0.2, 0.67 0.4, 0.33 0.4, 0.33 0.6, 0.67 0.6, 0.67 0.8, 0.33 0.8, 0.33 0" />
        </clippath>
        <clippath id="illusion-number-8-1-in" clipPathUnits="objectBoundingBox">
            <!--■■■
                ■□■
                ■■■
                ■□■
                ■■■-->
            <polygon points="0 0, 0 1, 1 1, 1 0, 0.33 0, 0.33 0.2, 0.67 0.2, 0.67 0.4, 0.33 0.4, 0.33 0.6, 0.67 0.6, 0.67 0.8, 0.33 0.8, 0.33 0" />
        </clippath>
        <clippath id="illusion-number-8-2-in" clipPathUnits="objectBoundingBox">
        </clippath>
        <clippath id="illusion-number-8-3-in" clipPathUnits="objectBoundingBox">
        </clippath>
        <clippath id="illusion-number-8-1-out" clipPathUnits="objectBoundingBox">
            <!--■■■
                ■□■
                ■■■
                □□□
                □□□-->
            <polygon points="0 0, 0 0.6, 1 0.6, 1 0, 0.33 0, 0.33 0.2, 0.67 0.2, 0.67 0.4, 0.33 0.4, 0.33 0" />
            <!--□□□
                □□□
                □□□
                □□□
                ■■■-->
            <polygon points="0 0.8, 0 1, 1 1, 1 0.8" />
        </clippath>
        <clippath id="illusion-number-8-2-out" clipPathUnits="objectBoundingBox">
        </clippath>
        <clippath id="illusion-number-8-3-out" clipPathUnits="objectBoundingBox">
            <!--□□□
                □□□
                □□□
                □□■
                □□□-->
            <polygon points="0.67 0.6, 0.67 0.8, 1 0.8, 1 0.6" />
            <!--□□□
                □□□
                □□□
                ■□□
                □□□-->
            <polygon points="0 0.6, 0 0.8, 0.33 0.8, 0.33 0.6" />
            <!--□□□
                □□■
                □□□
                □□□
                □□□-->
            <polygon points="0.67 0.2, 0.67 0.4, 1 0.4, 1 0.2" />
            <!--□□□
                ■□□
                □□□
                □□□
                □□□-->
            <polygon points="0 0.2, 0 0.4, 0.33 0.4, 0.33 0.2" />
        </clippath>

        <clippath id="illusion-number-9-all" clipPathUnits="objectBoundingBox">
            <!--■■■
                ■□■
                ■■■
                □□■
                ■■■-->
            <polygon points="0 0, 0 0.6, 0.67 0.6, 0.67 0.8, 0 0.8, 0 1, 1 1, 1 0, 0.33 0, 0.33 0.2, 0.67 0.2, 0.67 0.4, 0.33 0.4, 0.33 0" />
        </clippath>
        <clippath id="illusion-number-9-1-in" clipPathUnits="objectBoundingBox">
            <!--■■■
                ■□■
                ■■■
                □□■
                ■■■-->
            <polygon points="0 0, 0 0.6, 0.67 0.6, 0.67 0.8, 0 0.8, 0 1, 1 1, 1 0, 0.33 0, 0.33 0.2, 0.67 0.2, 0.67 0.4, 0.33 0.4, 0.33 0" />
        </clippath>
        <clippath id="illusion-number-9-2-in" clipPathUnits="objectBoundingBox">
            <polygon points="" />
        </clippath>
        <clippath id="illusion-number-9-3-in" clipPathUnits="objectBoundingBox">
            <!--□□□
                □□■
                □□□
                □□□
                □□□-->
            <polygon points="0.67 0.2, 0.67 0.4, 1 0.4, 1 0.2" />
            <!--□□□
                □□□
                □□□
                □□■
                □□□-->
            <polygon points="0.67 0.6, 0.67 0.8, 1 0.8, 1 0.6" />
            <!--□□□
                ■□□
                □□□
                □□□
                □□□-->
            <polygon points="0 0.2, 0 0.4, 0.33 0.4, 0.33 0.2" />
        </clippath>
        <clippath id="illusion-number-9-1-out" clipPathUnits="objectBoundingBox">
            <!--■■■
                ■□■
                ■■■
                □□■
                ■■■-->
            <polygon points="0 0, 0 0.6, 0.67 0.6, 0.67 0.8, 0 0.8, 0 1, 1 1, 1 0, 0.33 0, 0.33 0.2, 0.67 0.2, 0.67 0.4, 0.33 0.4, 0.33 0" />
        </clippath>
        <clippath id="illusion-number-9-2-out" clipPathUnits="objectBoundingBox">
            <polygon points="" />
        </clippath>
        <clippath id="illusion-number-9-3-out" clipPathUnits="objectBoundingBox">
            <!--□□□
                □□■
                □□■
                □□■
                □□□-->
            <polygon points="0.67 0.2, 0.67 0.8, 1 0.8, 1 0.2" />
        </clippath>
<!--
        <clippath id="illusion-number-N-all" clipPathUnits="objectBoundingBox">
            <polygon points="" />
        </clippath>
        <clippath id="illusion-number-N-1-in" clipPathUnits="objectBoundingBox">
            <polygon points="" />
        </clippath>
        <clippath id="illusion-number-N-2-in" clipPathUnits="objectBoundingBox">
            <polygon points="" />
        </clippath>
        <clippath id="illusion-number-N-3-in" clipPathUnits="objectBoundingBox">
            <polygon points="" />
        </clippath>
        <clippath id="illusion-number-N-1-out" clipPathUnits="objectBoundingBox">
            <polygon points="" />
        </clippath>
        <clippath id="illusion-number-N-2-out" clipPathUnits="objectBoundingBox">
            <polygon points="" />
        </clippath>
        <clippath id="illusion-number-N-3-out" clipPathUnits="objectBoundingBox">
            <polygon points="" />
        </clippath>
-->
    </defs>
</svg>